<?xml version="1.0" encoding="utf-8"?>
<!-- Generator: Adobe Illustrator 27.2.0, SVG Export Plug-In . SVG Version: 6.00 Build 0)  -->
<svg version="1.1" id="Layer_1" xmlns="http://www.w3.org/2000/svg" xmlns:xlink="http://www.w3.org/1999/xlink" x="0px" y="0px"
	 viewBox="0 0 1574.1 414.2" style="enable-background:new 0 0 1574.1 414.2;" xml:space="preserve">
<style type="text/css">
	.st0{fill:#00AA95;}
	.st1{fill:#00FFDA;}
</style>
<g>
	<polygon class="st0" points="428.8,357.6 142.9,357.6 197.9,262.4 483.8,262.4 	"/>
	<polygon class="st1" points="197.9,262.4 55,14.8 0,110.1 142.9,357.6 	"/>
	<polygon class="st0" points="404.3,214.3 225.7,214.3 260.1,154.7 438.7,154.7 	"/>
	<polygon class="st1" points="260.1,154.7 170.8,0 136.4,59.6 225.7,214.3 	"/>
	<polygon class="st0" points="373.3,113.3 284,113.3 301.2,83.5 390.5,83.5 	"/>
	<polygon class="st1" points="301.2,83.5 256.5,6.2 239.3,35.9 284,113.3 	"/>
</g>
<g>
	<path d="M555,218h-13.8c-2.8,0-4.7-0.5-5.7-1.4c-1-0.9-1.5-2.8-1.5-5.5v-23.8c0-4.8,2.4-7.2,7.2-7.2H555c2.5,0,3.8-1.3,3.8-3.8
		v-32.8c0-4.8,2.5-7.2,7.6-7.2h29c4.8,0,7.2,2.4,7.2,7.2v32.8c0,2.5,1.4,3.8,4.1,3.8h26.9c4.8,0,7.2,2.4,7.2,7.2v23.8
		c0,2.5-0.5,4.3-1.5,5.3c-1,1-2.9,1.6-5.7,1.6h-26.9c-2.8,0-4.1,1.3-4.1,3.8V298c0,7.1,1.6,12.2,4.8,15.3c3.2,3.1,8.5,4.6,15.9,4.6
		h13.8c4.8,0,7.2,2.4,7.2,7.2V349c0,2.5-0.5,4.3-1.5,5.3c-1,1-2.9,1.5-5.7,1.5h-21c-18.2,0-32.2-4.8-42.2-14.5
		c-10-9.6-15-23.4-15-41.4v-78.3C558.8,219.3,557.6,218,555,218z"/>
	<path d="M677.7,150.5v-30c0-4.6,2.3-6.9,6.9-6.9h30c4.6,0,6.9,2.2,6.9,6.6v30.3c0,4.6-2.3,6.9-6.9,6.9h-30
		C680,157.4,677.7,155.1,677.7,150.5z M677.7,348.7V187.4c0-4.8,2.3-7.2,6.9-7.2h29.7c4.8,0,7.2,2.4,7.2,7.2v161.4
		c0,3-0.5,5-1.5,5.9c-1,0.9-2.8,1.4-5.3,1.4h-29.7C680.1,356,677.7,353.5,677.7,348.7z"/>
	<path d="M794.6,356h-29.3c-4.8,0-7.2-2.4-7.2-7.2V187.4c0-4.8,2.4-7.2,7.2-7.2h29.3c4.8,0,7.2,2.4,7.2,7.2v11.4h1.4
		c5-12.4,16.3-18.6,33.8-18.6h11c36.1,0,54.1,18.7,54.1,56.2v112.4c0,4.8-2.5,7.2-7.6,7.2h-29c-4.8,0-7.2-2.4-7.2-7.2V238.4
		c0-7.4-1.5-12.6-4.7-15.7c-3.1-3.1-8.3-4.6-15.7-4.6h-12.4c-15.9,0-23.8,8.7-23.8,26.2v104.5C801.9,353.5,799.5,356,794.6,356z"/>
	<path d="M961,414.2H939c-4.6,0-6.9-2.5-6.9-7.6v-23.1c0-5.1,2.3-7.6,6.9-7.6h7.2c14.5,0,24.3-2,29.5-6c5.2-4,9.1-11.8,11.9-23.3
		h-18.3c-4.4,0-7.2-2.4-8.6-7.2l-40.3-152.1c-1.4-4.8,0.3-7.2,5.2-7.2h30.7c4.6,0,7.5,2.4,8.6,7.2l29.7,127.2h1.4l29.3-127.2
		c0.9-4.8,3.8-7.2,8.6-7.2h29c5.7,0,8,2.5,6.9,7.6L1027.6,356c-5.1,19.1-12.9,33.6-23.4,43.4C993.6,409.3,979.2,414.2,961,414.2z"/>
	<path d="M1093.8,348.7V120.8c0-4.8,2.4-7.2,7.2-7.2h29.3c4.8,0,7.2,2.4,7.2,7.2v77.6h1.4c2.5-6.2,7-10.9,13.4-14.1
		c6.4-3.2,13.2-4.8,20.3-4.8h11c18.2,0,32.2,4.8,42.1,14.5s14.8,23.6,14.8,41.7v64.1c0,18.2-4.9,32.1-14.8,41.7
		c-9.9,9.6-23.9,14.5-42.1,14.5H1101C1096.2,356,1093.8,353.5,1093.8,348.7z M1141.4,318h35.2c7.3,0,12.6-1.5,15.7-4.6
		c3.1-3.1,4.7-8.3,4.7-15.7v-60c0-7.4-1.6-12.6-4.7-15.7c-3.1-3.1-8.3-4.6-15.7-4.6h-15.2c-15.9,0-23.8,8.7-23.8,26.2v70.7
		C1137.6,316.8,1138.9,318,1141.4,318z"/>
	<path d="M1355.3,356h-30.7c-18.2,0-32.2-4.8-42.1-14.5c-9.9-9.6-14.8-23.6-14.8-41.7v-63.4c0-18.1,4.9-32.1,14.8-41.7
		c9.9-9.6,23.9-14.5,42.1-14.5h30.7c17.9,0,31.9,4.9,41.9,14.6c10,9.8,15,23.6,15,41.6v63.4c0,17.9-5,31.8-15,41.5
		C1387.2,351.1,1373.2,356,1355.3,356z M1331.1,318.4h17.6c7.3,0,12.6-1.5,15.7-4.5c3.1-3,4.7-8.2,4.7-15.5v-60.7
		c0-7.4-1.6-12.5-4.7-15.5c-3.1-3-8.3-4.5-15.7-4.5h-17.6c-7.4,0-12.5,1.5-15.5,4.5c-3,3-4.5,8.2-4.5,15.5v60.7
		c0,7.4,1.5,12.5,4.5,15.5C1318.6,316.9,1323.8,318.4,1331.1,318.4z"/>
	<path d="M1467.9,356h-34.8c-6,0-7.6-2.4-4.8-7.2l43.4-82.4l-43.4-78.9c-2.3-4.8-0.9-7.2,4.1-7.2h35.2c5.5,0,9.1,2.4,10.7,7.2
		l21.7,52.4h1.4l19-52.4c1.6-4.8,5.2-7.2,10.7-7.2h34.5c6,0,7.5,2.4,4.5,7.2l-41.4,78.9l44.5,82.4c1.2,2.1,1.3,3.8,0.5,5.2
		c-0.8,1.4-2.4,2.1-4.7,2.1h-35.5c-4.8,0-8.3-2.4-10.3-7.2l-21.7-52.8h-1.4l-21.7,52.8C1476.6,353.5,1473.2,356,1467.9,356z"/>
</g>
</svg>
