<?xml version="1.0" encoding="utf-8"?>
<!-- Generator: Adobe Illustrator 27.2.0, SVG Export Plug-In . SVG Version: 6.00 Build 0)  -->
<svg version="1.1" id="Layer_1" xmlns="http://www.w3.org/2000/svg" xmlns:xlink="http://www.w3.org/1999/xlink" x="0px" y="0px"
	 viewBox="0 0 1040.1 300.7" style="enable-background:new 0 0 1040.1 300.7;" xml:space="preserve">
<g>
	<path d="M21,104.5H7.2c-2.8,0-4.7-0.5-5.7-1.4c-1-0.9-1.5-2.8-1.5-5.5V73.8c0-4.8,2.4-7.2,7.2-7.2H21c2.5,0,3.8-1.3,3.8-3.8V30
		c0-4.8,2.5-7.2,7.6-7.2h29c4.8,0,7.2,2.4,7.2,7.2v32.8c0,2.5,1.4,3.8,4.1,3.8h26.9c4.8,0,7.2,2.4,7.2,7.2v23.8
		c0,2.5-0.5,4.3-1.5,5.3c-1,1-2.9,1.6-5.7,1.6H72.7c-2.8,0-4.1,1.3-4.1,3.8v76.2c0,7.1,1.6,12.2,4.8,15.3c3.2,3.1,8.5,4.6,15.9,4.6
		h13.8c4.8,0,7.2,2.4,7.2,7.2v23.8c0,2.5-0.5,4.3-1.5,5.3c-1,1-2.9,1.5-5.7,1.5H82c-18.2,0-32.2-4.8-42.2-14.5
		c-10-9.6-15-23.4-15-41.4v-78.3C24.8,105.8,23.5,104.5,21,104.5z"/>
	<path d="M143.7,36.9v-30c0-4.6,2.3-6.9,6.9-6.9h30c4.6,0,6.9,2.2,6.9,6.5v30.3c0,4.6-2.3,6.9-6.9,6.9h-30
		C146,43.8,143.7,41.5,143.7,36.9z M143.7,235.2V73.8c0-4.8,2.3-7.2,6.9-7.2h29.7c4.8,0,7.2,2.4,7.2,7.2v161.4c0,3-0.5,5-1.5,5.9
		c-1,0.9-2.8,1.4-5.3,1.4h-29.7C146.1,242.4,143.7,240,143.7,235.2z"/>
	<path d="M260.6,242.4h-29.3c-4.8,0-7.2-2.4-7.2-7.2V73.8c0-4.8,2.4-7.2,7.2-7.2h29.3c4.8,0,7.2,2.4,7.2,7.2v11.4h1.4
		c5-12.4,16.3-18.6,33.8-18.6h11c36.1,0,54.1,18.7,54.1,56.2v112.4c0,4.8-2.5,7.2-7.6,7.2h-29c-4.8,0-7.2-2.4-7.2-7.2V124.8
		c0-7.4-1.5-12.6-4.7-15.7c-3.1-3.1-8.3-4.6-15.7-4.6h-12.4c-15.9,0-23.8,8.7-23.8,26.2v104.5C267.9,240,265.5,242.4,260.6,242.4z"
		/>
	<path d="M427,300.7H405c-4.6,0-6.9-2.5-6.9-7.6V270c0-5.1,2.3-7.6,6.9-7.6h7.2c14.5,0,24.3-2,29.5-6c5.2-4,9.1-11.8,11.9-23.3
		h-18.3c-4.4,0-7.2-2.4-8.6-7.2L386.4,73.8c-1.4-4.8,0.3-7.2,5.2-7.2h30.7c4.6,0,7.5,2.4,8.6,7.2L460.5,201h1.4l29.3-127.2
		c0.9-4.8,3.8-7.2,8.6-7.2h29c5.7,0,8,2.5,6.9,7.6l-42.1,168.2c-5.1,19.1-12.9,33.6-23.4,43.4C459.5,295.7,445.2,300.7,427,300.7z"
		/>
	<path d="M559.8,235.2V7.3c0-4.8,2.4-7.2,7.2-7.2h29.3c4.8,0,7.2,2.4,7.2,7.2v77.6h1.4c2.5-6.2,7-10.9,13.4-14.1
		c6.4-3.2,13.2-4.8,20.3-4.8h11c18.2,0,32.2,4.8,42.1,14.5s14.8,23.6,14.8,41.7v64.1c0,18.2-4.9,32.1-14.8,41.7
		c-9.9,9.6-23.9,14.5-42.1,14.5H567C562.2,242.4,559.8,240,559.8,235.2z M607.4,204.5h35.2c7.3,0,12.6-1.5,15.7-4.6
		c3.1-3.1,4.7-8.3,4.7-15.7v-60c0-7.4-1.6-12.6-4.7-15.7c-3.1-3.1-8.3-4.6-15.7-4.6h-15.2c-15.9,0-23.8,8.7-23.8,26.2v70.7
		C603.6,203.2,604.8,204.5,607.4,204.5z"/>
	<path d="M821.3,242.4h-30.7c-18.2,0-32.2-4.8-42.1-14.5c-9.9-9.6-14.8-23.6-14.8-41.7v-63.4c0-18.1,4.9-32.1,14.8-41.7
		c9.9-9.7,23.9-14.5,42.1-14.5h30.7c17.9,0,31.9,4.9,41.9,14.6c10,9.8,15,23.6,15,41.6v63.4c0,17.9-5,31.8-15,41.5
		C853.2,237.5,839.2,242.4,821.3,242.4z M797.1,204.8h17.6c7.3,0,12.6-1.5,15.7-4.5c3.1-3,4.7-8.2,4.7-15.5v-60.7
		c0-7.4-1.6-12.5-4.7-15.5c-3.1-3-8.3-4.5-15.7-4.5h-17.6c-7.4,0-12.5,1.5-15.5,4.5c-3,3-4.5,8.2-4.5,15.5v60.7
		c0,7.4,1.5,12.5,4.5,15.5C784.6,203.3,789.8,204.8,797.1,204.8z"/>
	<path d="M933.9,242.4h-34.8c-6,0-7.6-2.4-4.8-7.2l43.4-82.4l-43.4-79c-2.3-4.8-0.9-7.2,4.1-7.2h35.2c5.5,0,9.1,2.4,10.7,7.2
		l21.7,52.4h1.4l19-52.4c1.6-4.8,5.2-7.2,10.7-7.2h34.5c6,0,7.5,2.4,4.5,7.2l-41.4,79l44.5,82.4c1.2,2.1,1.3,3.8,0.5,5.2
		c-0.8,1.4-2.4,2.1-4.7,2.1h-35.5c-4.8,0-8.3-2.4-10.3-7.2l-21.7-52.8H966l-21.7,52.8C942.6,240,939.2,242.4,933.9,242.4z"/>
</g>
</svg>
