<?xml version="1.0" encoding="utf-8"?>
<!-- Generator: Adobe Illustrator 27.2.0, SVG Export Plug-In . SVG Version: 6.00 Build 0)  -->
<svg version="1.1" id="Layer_1" xmlns="http://www.w3.org/2000/svg" xmlns:xlink="http://www.w3.org/1999/xlink" x="0px" y="0px"
	 viewBox="0 0 700 700" style="enable-background:new 0 0 700 700;" xml:space="preserve">
<style type="text/css">
	.st0{fill:#00FFDA;}
</style>
<g>
	<path class="st0" d="M437.4,272.2c0,48.2-39.1,87.4-87.4,87.4s-87.4-39.1-87.4-87.4s39.1-87.4,87.4-87.4S437.4,223.9,437.4,272.2"
		/>
	<path class="st0" d="M350,84C203.3,84,84,203.3,84,350s119.3,266,266,266s266-119.3,266-266S496.7,84,350,84z M483.8,528.1
		l-19-83.4c-7.8-34.7-39.2-59.4-74.5-59.4l-80.1,0c-35.8,0-66.6,24.6-74.5,59.4l-19,83.4c-54.3-40.9-89.6-105.3-89.6-178.1
		c0-122.6,99.7-222.9,222.9-222.9c122.6,0,222.9,99.7,222.9,222.9C572.9,422.8,537.6,487.2,483.8,528.1L483.8,528.1z"/>
</g>
</svg>
