<?xml version="1.0" encoding="utf-8"?>
<!-- Generator: Adobe Illustrator 27.1.1, SVG Export Plug-In . SVG Version: 6.00 Build 0)  -->
<svg version="1.1" id="Layer_1" xmlns="http://www.w3.org/2000/svg" xmlns:xlink="http://www.w3.org/1999/xlink" x="0px" y="0px"
	 viewBox="0 0 1920 674" style="enable-background:new 0 0 1920 674;" xml:space="preserve">
<style type="text/css">
	.st0{fill:#00FFDA;}
</style>
<rect y="260.1" class="st0" width="7" height="413.9"/>
<rect x="10" y="216.1" class="st0" width="7" height="457.9"/>
<rect x="20" y="195.3" class="st0" width="7" height="478.7"/>
<rect x="30" y="182.3" class="st0" width="7" height="491.7"/>
<rect x="40.1" y="227.8" class="st0" width="7" height="446.2"/>
<rect x="50.1" y="190.8" class="st0" width="7" height="483.2"/>
<rect x="60.1" y="226.5" class="st0" width="7" height="447.5"/>
<rect x="70.1" y="165.6" class="st0" width="7" height="508.4"/>
<rect x="80.1" y="252" class="st0" width="7" height="422"/>
<rect x="90.1" y="171.2" class="st0" width="7" height="502.8"/>
<rect x="100.2" y="169.8" class="st0" width="7" height="504.2"/>
<rect x="110.2" y="162.3" class="st0" width="7" height="511.7"/>
<rect x="120.2" y="236.8" class="st0" width="7" height="437.2"/>
<rect x="130.2" y="227.9" class="st0" width="7" height="446.1"/>
<rect x="140.2" y="169.6" class="st0" width="7" height="504.4"/>
<rect x="150.2" y="169.4" class="st0" width="7" height="504.6"/>
<rect x="160.2" y="190.6" class="st0" width="7" height="483.4"/>
<rect x="170.3" y="236.2" class="st0" width="7" height="437.8"/>
<rect x="180.3" y="228.9" class="st0" width="7" height="445.1"/>
<rect x="190.3" y="212" class="st0" width="7" height="462"/>
<rect x="200.3" y="205.2" class="st0" width="7" height="468.8"/>
<rect x="210.3" y="154.6" class="st0" width="7" height="519.4"/>
<rect x="220.4" y="177.8" class="st0" width="7" height="496.2"/>
<rect x="230.4" y="242.9" class="st0" width="7" height="431.1"/>
<rect x="240.4" y="178.4" class="st0" width="7" height="495.6"/>
<rect x="250.4" y="233.6" class="st0" width="7" height="440.4"/>
<rect x="260.4" y="215.5" class="st0" width="7" height="458.5"/>
<rect x="270.4" y="181" class="st0" width="7" height="493"/>
<rect x="280.4" y="173.8" class="st0" width="7" height="500.2"/>
<rect x="290.5" y="223" class="st0" width="7" height="451"/>
<rect x="300.5" y="187.9" class="st0" width="7" height="486.1"/>
<rect x="310.5" y="186.6" class="st0" width="7" height="487.4"/>
<rect x="320.5" y="217.7" class="st0" width="7" height="456.3"/>
<rect x="330.5" y="215.6" class="st0" width="7" height="458.4"/>
<rect x="340.5" y="204.3" class="st0" width="7" height="469.7"/>
<rect x="350.5" y="174.1" class="st0" width="7" height="499.9"/>
<rect x="360.6" y="234.2" class="st0" width="7" height="439.8"/>
<rect x="370.6" y="228.8" class="st0" width="7" height="445.2"/>
<rect x="380.6" y="190.3" class="st0" width="7" height="483.7"/>
<rect x="390.6" y="162.7" class="st0" width="7" height="511.3"/>
<rect x="400.6" y="217.3" class="st0" width="7" height="456.7"/>
<rect x="410.6" y="224.2" class="st0" width="7" height="449.8"/>
<rect x="420.7" y="179.7" class="st0" width="7" height="494.3"/>
<rect x="430.7" y="164" class="st0" width="7" height="510"/>
<rect x="440.7" y="240.9" class="st0" width="7" height="433.1"/>
<rect x="450.7" y="163.5" class="st0" width="7" height="510.5"/>
<rect x="460.7" y="241.8" class="st0" width="7" height="432.2"/>
<rect x="470.7" y="207.4" class="st0" width="7" height="466.6"/>
<rect x="480.8" y="205.7" class="st0" width="7" height="468.3"/>
<rect x="490.8" y="203.5" class="st0" width="7" height="470.5"/>
<rect x="500.8" y="248.7" class="st0" width="7" height="425.3"/>
<rect x="510.8" y="203.4" class="st0" width="7" height="470.6"/>
<rect x="520.8" y="224.2" class="st0" width="7" height="449.8"/>
<rect x="530.8" y="226.9" class="st0" width="7" height="447.1"/>
<rect x="540.8" y="177.8" class="st0" width="7" height="496.2"/>
<rect x="550.9" y="243.4" class="st0" width="7" height="430.6"/>
<rect x="560.9" y="242.9" class="st0" width="7" height="431.1"/>
<rect x="570.9" y="212.3" class="st0" width="7" height="461.7"/>
<rect x="580.9" y="253.3" class="st0" width="7" height="420.7"/>
<rect x="590.9" y="238" class="st0" width="7" height="436"/>
<rect x="600.9" y="202.2" class="st0" width="7" height="471.8"/>
<rect x="611" y="239.9" class="st0" width="7" height="434.1"/>
<rect x="621" y="224.8" class="st0" width="7" height="449.2"/>
<rect x="631" y="192.3" class="st0" width="7" height="481.7"/>
<rect x="641" y="233.5" class="st0" width="7" height="440.5"/>
<rect x="651" y="236.5" class="st0" width="7" height="437.5"/>
<rect x="661" y="182.9" class="st0" width="7" height="491.1"/>
<rect x="671" y="218.7" class="st0" width="7" height="455.3"/>
<rect x="681.1" y="193.9" class="st0" width="7" height="480.1"/>
<rect x="691.1" y="156.5" class="st0" width="7" height="517.5"/>
<rect x="701.1" y="213.2" class="st0" width="7" height="460.8"/>
<rect x="711.1" y="187.4" class="st0" width="7" height="486.6"/>
<rect x="721.1" y="238.7" class="st0" width="7" height="435.3"/>
<rect x="731.2" y="201.6" class="st0" width="7" height="472.4"/>
<rect x="741.2" y="186.9" class="st0" width="7" height="487.1"/>
<rect x="751.2" y="214.2" class="st0" width="7" height="459.8"/>
<rect x="761.2" y="231.1" class="st0" width="7" height="442.9"/>
<rect x="771.2" y="176.9" class="st0" width="7" height="497.1"/>
<rect x="781.2" y="189.5" class="st0" width="7" height="484.5"/>
<rect x="791.2" y="185.9" class="st0" width="7" height="488.1"/>
<rect x="801.3" y="189.4" class="st0" width="7" height="484.6"/>
<rect x="811.3" y="185.5" class="st0" width="7" height="488.5"/>
<rect x="821.3" y="187" class="st0" width="7" height="487"/>
<rect x="831.3" y="223.4" class="st0" width="7" height="450.6"/>
<rect x="841.3" y="171.5" class="st0" width="7" height="502.5"/>
<rect x="851.3" y="159.6" class="st0" width="7" height="514.4"/>
<rect x="861.3" y="229" class="st0" width="7" height="445"/>
<rect x="871.4" y="181.7" class="st0" width="7" height="492.3"/>
<rect x="881.4" y="197.8" class="st0" width="7" height="476.2"/>
<rect x="891.4" y="230.3" class="st0" width="7" height="443.7"/>
<rect x="901.4" y="190.2" class="st0" width="7" height="483.8"/>
<rect x="911.4" y="188.1" class="st0" width="7" height="485.9"/>
<rect x="921.5" y="210.6" class="st0" width="7" height="463.4"/>
<rect x="931.5" y="233.9" class="st0" width="7" height="440.1"/>
<rect x="941.5" y="248.2" class="st0" width="7" height="425.8"/>
<rect x="951.5" y="217.5" class="st0" width="7" height="456.5"/>
<rect x="961.5" y="171" class="st0" width="7" height="503"/>
<rect x="971.5" y="155.8" class="st0" width="7" height="518.2"/>
<rect x="981.5" y="200.5" class="st0" width="7" height="473.5"/>
<rect x="991.5" y="205.2" class="st0" width="7" height="468.8"/>
<rect x="1001.6" y="194.5" class="st0" width="7" height="479.5"/>
<rect x="1011.6" y="212.5" class="st0" width="7" height="461.5"/>
<rect x="1021.6" y="217.2" class="st0" width="7" height="456.8"/>
<rect x="1031.6" y="197.6" class="st0" width="7" height="476.4"/>
<rect x="1041.6" y="222.6" class="st0" width="7" height="451.4"/>
<rect x="1051.7" y="170.9" class="st0" width="7" height="503.1"/>
<rect x="1061.7" y="232.3" class="st0" width="7" height="441.7"/>
<rect x="1071.7" y="239.6" class="st0" width="7" height="434.4"/>
<rect x="1081.7" y="232.7" class="st0" width="7" height="441.3"/>
<rect x="1091.7" y="204.3" class="st0" width="7" height="469.7"/>
<rect x="1101.7" y="172.3" class="st0" width="7" height="501.7"/>
<rect x="1111.7" y="200.4" class="st0" width="7" height="473.6"/>
<rect x="1121.8" y="185.5" class="st0" width="7" height="488.5"/>
<rect x="1131.8" y="187" class="st0" width="7" height="487"/>
<rect x="1141.8" y="222.2" class="st0" width="7" height="451.8"/>
<rect x="1151.8" y="236.2" class="st0" width="7" height="437.8"/>
<rect x="1161.8" y="209.9" class="st0" width="7" height="464.1"/>
<rect x="1171.8" y="226.1" class="st0" width="7" height="447.9"/>
<rect x="1181.8" y="228.7" class="st0" width="7" height="445.3"/>
<rect x="1191.9" y="190.8" class="st0" width="7" height="483.2"/>
<rect x="1201.9" y="224.7" class="st0" width="7" height="449.3"/>
<rect x="1211.9" y="230.2" class="st0" width="7" height="443.8"/>
<rect x="1221.9" y="241.8" class="st0" width="7" height="432.2"/>
<rect x="1231.9" y="233" class="st0" width="7" height="441"/>
<rect x="1241.9" y="199.1" class="st0" width="7" height="474.9"/>
<rect x="1252" y="216.1" class="st0" width="7" height="457.9"/>
<rect x="1262" y="192.7" class="st0" width="7" height="481.3"/>
<rect x="1272" y="232.7" class="st0" width="7" height="441.3"/>
<rect x="1282" y="249.3" class="st0" width="7" height="424.7"/>
<rect x="1292" y="253.4" class="st0" width="7" height="420.6"/>
<rect x="1302" y="210.3" class="st0" width="7" height="463.7"/>
<rect x="1312.1" y="173" class="st0" width="7" height="501"/>
<rect x="1322.1" y="173.8" class="st0" width="7" height="500.2"/>
<rect x="1332.1" y="245.5" class="st0" width="7" height="428.5"/>
<rect x="1342.1" y="174.3" class="st0" width="7" height="499.7"/>
<rect x="1352.1" y="201.4" class="st0" width="7" height="472.6"/>
<rect x="1362.1" y="225.3" class="st0" width="7" height="448.7"/>
<rect x="1372.2" y="249.4" class="st0" width="7" height="424.6"/>
<rect x="1382.2" y="206.6" class="st0" width="7" height="467.4"/>
<rect x="1392.2" y="217" class="st0" width="7" height="457"/>
<rect x="1402.2" y="220.7" class="st0" width="7" height="453.3"/>
<rect x="1412.2" y="231.7" class="st0" width="7" height="442.3"/>
<rect x="1422.2" y="199.7" class="st0" width="7" height="474.3"/>
<rect x="1432.2" y="196.4" class="st0" width="7" height="477.6"/>
<rect x="1442.3" y="188.2" class="st0" width="7" height="485.8"/>
<rect x="1452.3" y="163.1" class="st0" width="7" height="510.9"/>
<rect x="1462.3" y="182.4" class="st0" width="7" height="491.6"/>
<rect x="1472.3" y="156.3" class="st0" width="7" height="517.7"/>
<rect x="1482.3" y="252" class="st0" width="7" height="422"/>
<rect x="1492.3" y="250.2" class="st0" width="7" height="423.8"/>
<rect x="1502.4" y="223.8" class="st0" width="7" height="450.2"/>
<rect x="1512.4" y="253.8" class="st0" width="7" height="420.2"/>
<rect x="1522.4" y="155" class="st0" width="7" height="519"/>
<rect x="1532.4" y="204.2" class="st0" width="7" height="469.8"/>
<rect x="1542.4" y="174.1" class="st0" width="7" height="499.9"/>
<rect x="1552.4" y="224.6" class="st0" width="7" height="449.4"/>
<rect x="1562.4" y="218" class="st0" width="7" height="456"/>
<rect x="1572.5" y="247.7" class="st0" width="7" height="426.3"/>
<rect x="1582.5" y="242.9" class="st0" width="7" height="431.1"/>
<rect x="1592.5" y="158.4" class="st0" width="7" height="515.6"/>
<rect x="1602.5" y="237.3" class="st0" width="7" height="436.7"/>
<rect x="1612.5" y="159.2" class="st0" width="7" height="514.8"/>
<rect x="1622.5" y="215.5" class="st0" width="7" height="458.5"/>
<rect x="1632.6" y="211.3" class="st0" width="7" height="462.7"/>
<rect x="1642.6" y="219.5" class="st0" width="7" height="454.5"/>
<rect x="1652.6" y="154.1" class="st0" width="7" height="519.9"/>
<rect x="1662.6" y="206.7" class="st0" width="7" height="467.3"/>
<rect x="1672.6" y="156.8" class="st0" width="7" height="517.2"/>
<rect x="1682.6" y="253.5" class="st0" width="7" height="420.5"/>
<rect x="1692.7" y="204.5" class="st0" width="7" height="469.5"/>
<rect x="1702.7" y="250.8" class="st0" width="7" height="423.2"/>
<rect x="1712.7" y="173.2" class="st0" width="7" height="500.8"/>
<rect x="1722.7" y="220.5" class="st0" width="7" height="453.5"/>
<rect x="1732.7" y="195.3" class="st0" width="7" height="478.7"/>
<rect x="1742.7" y="231.2" class="st0" width="7" height="442.8"/>
<rect x="1752.8" y="169.5" class="st0" width="7" height="504.5"/>
<rect x="1762.8" y="241.2" class="st0" width="7" height="432.8"/>
<rect x="1772.8" y="218.6" class="st0" width="7" height="455.4"/>
<rect x="1782.8" y="246.1" class="st0" width="7" height="427.9"/>
<rect x="1792.8" y="247.7" class="st0" width="7" height="426.3"/>
<rect x="1802.8" y="160.6" class="st0" width="7" height="513.4"/>
<rect x="1812.8" y="205.5" class="st0" width="7" height="468.5"/>
<rect x="1822.9" y="211.5" class="st0" width="7" height="462.5"/>
<rect x="1832.9" y="203.6" class="st0" width="7" height="470.4"/>
<rect x="1842.9" y="170.1" class="st0" width="7" height="503.9"/>
<rect x="1852.9" y="194.7" class="st0" width="7" height="479.3"/>
<rect x="1862.9" y="202.8" class="st0" width="7" height="471.2"/>
<rect x="1872.9" y="164.6" class="st0" width="7" height="509.4"/>
<rect x="1882.9" y="197.6" class="st0" width="7" height="476.4"/>
<rect x="1893" y="239.8" class="st0" width="7" height="434.2"/>
<rect x="1903" y="233.2" class="st0" width="7" height="440.8"/>
<rect x="1913" y="260.1" class="st0" width="7" height="413.9"/>
</svg>
