<?xml version="1.0" encoding="utf-8"?>
<!-- Generator: Adobe Illustrator 27.1.1, SVG Export Plug-In . SVG Version: 6.00 Build 0)  -->
<svg version="1.1" id="Layer_1" xmlns="http://www.w3.org/2000/svg" xmlns:xlink="http://www.w3.org/1999/xlink" x="0px" y="0px"
	 viewBox="0 0 1920 1080" style="enable-background:new 0 0 1920 1080;" xml:space="preserve">
<style type="text/css">
	.st0{fill:#00FFDA;}
</style>
<rect y="666.13" class="st0" width="7" height="640"/>
<rect x="10.02" y="622.1" class="st0" width="7" height="640"/>
<rect x="20.03" y="601.28" class="st0" width="7" height="640"/>
<rect x="30.05" y="588.33" class="st0" width="7" height="640"/>
<rect x="40.06" y="633.75" class="st0" width="7" height="640"/>
<rect x="50.08" y="596.8" class="st0" width="7" height="640"/>
<rect x="60.09" y="632.53" class="st0" width="7" height="640"/>
<rect x="70.11" y="571.64" class="st0" width="7" height="640"/>
<rect x="80.13" y="657.95" class="st0" width="7" height="640"/>
<rect x="90.14" y="577.18" class="st0" width="7" height="640"/>
<rect x="100.16" y="575.78" class="st0" width="7" height="640"/>
<rect x="110.17" y="568.27" class="st0" width="7" height="640"/>
<rect x="120.19" y="642.8" class="st0" width="7" height="640"/>
<rect x="130.2" y="633.9" class="st0" width="7" height="640"/>
<rect x="140.22" y="575.62" class="st0" width="7" height="640"/>
<rect x="150.24" y="575.43" class="st0" width="7" height="640"/>
<rect x="160.25" y="596.57" class="st0" width="7" height="640"/>
<rect x="170.27" y="642.23" class="st0" width="7" height="640"/>
<rect x="180.28" y="634.86" class="st0" width="7" height="640"/>
<rect x="190.3" y="617.98" class="st0" width="7" height="640"/>
<rect x="200.31" y="611.18" class="st0" width="7" height="640"/>
<rect x="210.33" y="560.56" class="st0" width="7" height="640"/>
<rect x="220.35" y="583.83" class="st0" width="7" height="640"/>
<rect x="230.36" y="648.87" class="st0" width="7" height="640"/>
<rect x="240.38" y="584.44" class="st0" width="7" height="640"/>
<rect x="250.39" y="639.59" class="st0" width="7" height="640"/>
<rect x="260.41" y="621.5" class="st0" width="7" height="640"/>
<rect x="270.42" y="587" class="st0" width="7" height="640"/>
<rect x="280.44" y="579.81" class="st0" width="7" height="640"/>
<rect x="290.46" y="629.01" class="st0" width="7" height="640"/>
<rect x="300.47" y="593.91" class="st0" width="7" height="640"/>
<rect x="310.49" y="592.59" class="st0" width="7" height="640"/>
<rect x="320.5" y="623.69" class="st0" width="7" height="640"/>
<rect x="330.52" y="621.58" class="st0" width="7" height="640"/>
<rect x="340.53" y="610.26" class="st0" width="7" height="640"/>
<rect x="350.55" y="580.13" class="st0" width="7" height="640"/>
<rect x="360.57" y="640.19" class="st0" width="7" height="640"/>
<rect x="370.58" y="634.83" class="st0" width="7" height="640"/>
<rect x="380.6" y="596.35" class="st0" width="7" height="640"/>
<rect x="390.61" y="568.72" class="st0" width="7" height="640"/>
<rect x="400.63" y="623.34" class="st0" width="7" height="640"/>
<rect x="410.64" y="630.17" class="st0" width="7" height="640"/>
<rect x="420.66" y="585.67" class="st0" width="7" height="640"/>
<rect x="430.68" y="569.97" class="st0" width="7" height="640"/>
<rect x="440.69" y="646.91" class="st0" width="7" height="640"/>
<rect x="450.71" y="569.52" class="st0" width="7" height="640"/>
<rect x="460.72" y="647.84" class="st0" width="7" height="640"/>
<rect x="470.74" y="613.41" class="st0" width="7" height="640"/>
<rect x="480.75" y="611.68" class="st0" width="7" height="640"/>
<rect x="490.77" y="609.47" class="st0" width="7" height="640"/>
<rect x="500.79" y="654.71" class="st0" width="7" height="640"/>
<rect x="510.8" y="609.37" class="st0" width="7" height="640"/>
<rect x="520.82" y="630.16" class="st0" width="7" height="640"/>
<rect x="530.83" y="632.94" class="st0" width="7" height="640"/>
<rect x="540.85" y="583.79" class="st0" width="7" height="640"/>
<rect x="550.86" y="649.36" class="st0" width="7" height="640"/>
<rect x="560.88" y="648.89" class="st0" width="7" height="640"/>
<rect x="570.9" y="618.26" class="st0" width="7" height="640"/>
<rect x="580.91" y="659.33" class="st0" width="7" height="640"/>
<rect x="590.93" y="643.97" class="st0" width="7" height="640"/>
<rect x="600.94" y="608.21" class="st0" width="7" height="640"/>
<rect x="610.96" y="645.88" class="st0" width="7" height="640"/>
<rect x="620.97" y="630.8" class="st0" width="7" height="640"/>
<rect x="630.99" y="598.26" class="st0" width="7" height="640"/>
<rect x="641.01" y="639.47" class="st0" width="7" height="640"/>
<rect x="651.02" y="642.46" class="st0" width="7" height="640"/>
<rect x="661.04" y="588.93" class="st0" width="7" height="640"/>
<rect x="671.05" y="624.67" class="st0" width="7" height="640"/>
<rect x="681.07" y="599.89" class="st0" width="7" height="640"/>
<rect x="691.08" y="562.52" class="st0" width="7" height="640"/>
<rect x="701.1" y="619.2" class="st0" width="7" height="640"/>
<rect x="711.12" y="593.36" class="st0" width="7" height="640"/>
<rect x="721.13" y="644.74" class="st0" width="7" height="640"/>
<rect x="731.15" y="607.61" class="st0" width="7" height="640"/>
<rect x="741.16" y="592.89" class="st0" width="7" height="640"/>
<rect x="751.18" y="620.15" class="st0" width="7" height="640"/>
<rect x="761.19" y="637.14" class="st0" width="7" height="640"/>
<rect x="771.21" y="582.93" class="st0" width="7" height="640"/>
<rect x="781.23" y="595.54" class="st0" width="7" height="640"/>
<rect x="791.24" y="591.9" class="st0" width="7" height="640"/>
<rect x="801.26" y="595.36" class="st0" width="7" height="640"/>
<rect x="811.27" y="591.45" class="st0" width="7" height="640"/>
<rect x="821.29" y="593.03" class="st0" width="7" height="640"/>
<rect x="831.3" y="629.37" class="st0" width="7" height="640"/>
<rect x="841.32" y="577.5" class="st0" width="7" height="640"/>
<rect x="851.34" y="565.59" class="st0" width="7" height="640"/>
<rect x="861.35" y="635.05" class="st0" width="7" height="640"/>
<rect x="871.37" y="587.66" class="st0" width="7" height="640"/>
<rect x="881.38" y="603.84" class="st0" width="7" height="640"/>
<rect x="891.4" y="636.33" class="st0" width="7" height="640"/>
<rect x="901.41" y="596.15" class="st0" width="7" height="640"/>
<rect x="911.43" y="594.06" class="st0" width="7" height="640"/>
<rect x="921.45" y="616.57" class="st0" width="7" height="640"/>
<rect x="931.46" y="639.87" class="st0" width="7" height="640"/>
<rect x="941.48" y="654.2" class="st0" width="7" height="640"/>
<rect x="951.49" y="623.45" class="st0" width="7" height="640"/>
<rect x="961.51" y="577.03" class="st0" width="7" height="640"/>
<rect x="971.52" y="561.75" class="st0" width="7" height="640"/>
<rect x="981.54" y="606.49" class="st0" width="7" height="640"/>
<rect x="991.55" y="611.2" class="st0" width="7" height="640"/>
<rect x="1001.57" y="600.53" class="st0" width="7" height="640"/>
<rect x="1011.59" y="618.54" class="st0" width="7" height="640"/>
<rect x="1021.6" y="623.16" class="st0" width="7" height="640"/>
<rect x="1031.62" y="603.58" class="st0" width="7" height="640"/>
<rect x="1041.63" y="628.59" class="st0" width="7" height="640"/>
<rect x="1051.65" y="576.89" class="st0" width="7" height="640"/>
<rect x="1061.66" y="638.27" class="st0" width="7" height="640"/>
<rect x="1071.68" y="645.59" class="st0" width="7" height="640"/>
<rect x="1081.7" y="638.69" class="st0" width="7" height="640"/>
<rect x="1091.71" y="610.27" class="st0" width="7" height="640"/>
<rect x="1101.73" y="578.3" class="st0" width="7" height="640"/>
<rect x="1111.74" y="606.4" class="st0" width="7" height="640"/>
<rect x="1121.76" y="591.54" class="st0" width="7" height="640"/>
<rect x="1131.77" y="593.04" class="st0" width="7" height="640"/>
<rect x="1141.79" y="628.15" class="st0" width="7" height="640"/>
<rect x="1151.81" y="642.25" class="st0" width="7" height="640"/>
<rect x="1161.82" y="615.89" class="st0" width="7" height="640"/>
<rect x="1171.84" y="632.14" class="st0" width="7" height="640"/>
<rect x="1181.85" y="634.71" class="st0" width="7" height="640"/>
<rect x="1191.87" y="596.8" class="st0" width="7" height="640"/>
<rect x="1201.88" y="630.72" class="st0" width="7" height="640"/>
<rect x="1211.9" y="636.17" class="st0" width="7" height="640"/>
<rect x="1221.92" y="647.79" class="st0" width="7" height="640"/>
<rect x="1231.93" y="639.02" class="st0" width="7" height="640"/>
<rect x="1241.95" y="605.09" class="st0" width="7" height="640"/>
<rect x="1251.96" y="622.1" class="st0" width="7" height="640"/>
<rect x="1261.98" y="598.7" class="st0" width="7" height="640"/>
<rect x="1271.99" y="638.65" class="st0" width="7" height="640"/>
<rect x="1282.01" y="655.32" class="st0" width="7" height="640"/>
<rect x="1292.03" y="659.37" class="st0" width="7" height="640"/>
<rect x="1302.04" y="616.26" class="st0" width="7" height="640"/>
<rect x="1312.06" y="578.99" class="st0" width="7" height="640"/>
<rect x="1322.07" y="579.83" class="st0" width="7" height="640"/>
<rect x="1332.09" y="651.53" class="st0" width="7" height="640"/>
<rect x="1342.1" y="580.28" class="st0" width="7" height="640"/>
<rect x="1352.12" y="607.38" class="st0" width="7" height="640"/>
<rect x="1362.14" y="631.35" class="st0" width="7" height="640"/>
<rect x="1372.15" y="655.39" class="st0" width="7" height="640"/>
<rect x="1382.17" y="612.62" class="st0" width="7" height="640"/>
<rect x="1392.18" y="623.02" class="st0" width="7" height="640"/>
<rect x="1402.2" y="626.74" class="st0" width="7" height="640"/>
<rect x="1412.21" y="637.68" class="st0" width="7" height="640"/>
<rect x="1422.23" y="605.68" class="st0" width="7" height="640"/>
<rect x="1432.25" y="602.43" class="st0" width="7" height="640"/>
<rect x="1442.26" y="594.18" class="st0" width="7" height="640"/>
<rect x="1452.28" y="569.14" class="st0" width="7" height="640"/>
<rect x="1462.29" y="588.4" class="st0" width="7" height="640"/>
<rect x="1472.31" y="562.26" class="st0" width="7" height="640"/>
<rect x="1482.32" y="658.01" class="st0" width="7" height="640"/>
<rect x="1492.34" y="656.22" class="st0" width="7" height="640"/>
<rect x="1502.36" y="629.82" class="st0" width="7" height="640"/>
<rect x="1512.37" y="659.76" class="st0" width="7" height="640"/>
<rect x="1522.39" y="560.98" class="st0" width="7" height="640"/>
<rect x="1532.4" y="610.17" class="st0" width="7" height="640"/>
<rect x="1542.42" y="580.06" class="st0" width="7" height="640"/>
<rect x="1552.43" y="630.62" class="st0" width="7" height="640"/>
<rect x="1562.45" y="623.96" class="st0" width="7" height="640"/>
<rect x="1572.47" y="653.71" class="st0" width="7" height="640"/>
<rect x="1582.48" y="648.86" class="st0" width="7" height="640"/>
<rect x="1592.5" y="564.37" class="st0" width="7" height="640"/>
<rect x="1602.51" y="643.29" class="st0" width="7" height="640"/>
<rect x="1612.53" y="565.17" class="st0" width="7" height="640"/>
<rect x="1622.54" y="621.55" class="st0" width="7" height="640"/>
<rect x="1632.56" y="617.29" class="st0" width="7" height="640"/>
<rect x="1642.58" y="625.47" class="st0" width="7" height="640"/>
<rect x="1652.59" y="560.12" class="st0" width="7" height="640"/>
<rect x="1662.61" y="612.65" class="st0" width="7" height="640"/>
<rect x="1672.62" y="562.76" class="st0" width="7" height="640"/>
<rect x="1682.64" y="659.47" class="st0" width="7" height="640"/>
<rect x="1692.65" y="610.49" class="st0" width="7" height="640"/>
<rect x="1702.67" y="656.77" class="st0" width="7" height="640"/>
<rect x="1712.69" y="579.22" class="st0" width="7" height="640"/>
<rect x="1722.7" y="626.49" class="st0" width="7" height="640"/>
<rect x="1732.72" y="601.28" class="st0" width="7" height="640"/>
<rect x="1742.73" y="637.25" class="st0" width="7" height="640"/>
<rect x="1752.75" y="575.48" class="st0" width="7" height="640"/>
<rect x="1762.76" y="647.21" class="st0" width="7" height="640"/>
<rect x="1772.78" y="624.63" class="st0" width="7" height="640"/>
<rect x="1782.8" y="652.08" class="st0" width="7" height="640"/>
<rect x="1792.81" y="653.66" class="st0" width="7" height="640"/>
<rect x="1802.83" y="566.58" class="st0" width="7" height="640"/>
<rect x="1812.84" y="611.47" class="st0" width="7" height="640"/>
<rect x="1822.86" y="617.46" class="st0" width="7" height="640"/>
<rect x="1832.87" y="609.57" class="st0" width="7" height="640"/>
<rect x="1842.89" y="576.06" class="st0" width="7" height="640"/>
<rect x="1852.91" y="600.72" class="st0" width="7" height="640"/>
<rect x="1862.92" y="608.79" class="st0" width="7" height="640"/>
<rect x="1872.94" y="570.61" class="st0" width="7" height="640"/>
<rect x="1882.95" y="603.58" class="st0" width="7" height="640"/>
<rect x="1892.97" y="645.84" class="st0" width="7" height="640"/>
<rect x="1902.98" y="639.24" class="st0" width="7" height="640"/>
<rect x="1913" y="666.13" class="st0" width="7" height="640"/>
</svg>
